<svg xmlns="http://www.w3.org/2000/svg" width="435" height="365" fill="none" viewBox="0 0 435 365"><path fill="#fff" d="M182.028 36.5L272.733 127.44L309.138 127.44L182.028 2.22629e-05L-7.97733e-06 182.5L182.028 365L309.138 237.56L272.733 237.56L182.028 328.5L36.4056 182.5L182.028 36.5Z"/><path fill="#fff" d="M182.028 72.81L236.731 127.655L182.028 182.5L236.731 237.345L182.028 292.19L72.6217 182.5L182.028 72.81Z"/><path fill="#fff" d="M254.65 36.5L345.354 127.44L381.76 127.44L254.65 1.90885e-05L236.447 18.25L236.446 18.2508L254.649 36.5008L254.65 36.5Z"/><path fill="#fff" d="M381.76 237.56L345.44 237.56L236.49 346.793L254.65 365L381.76 237.56Z"/><path fill="#fff" d="M249.602 148.733L216.137 182.285L249.602 215.837L249.653 215.786L249.653 215.888L401.535 215.888L401.535 215.837L435 182.285L401.535 148.733L401.484 148.783L249.653 148.783L249.602 148.733Z"/></svg>